<?xml version="1.0" standalone="no"?>
<!DOCTYPE svg PUBLIC "-//W3C//DTD SVG 20010904//EN"
 "http://www.w3.org/TR/2001/REC-SVG-20010904/DTD/svg10.dtd">
<svg version="1.0" xmlns="http://www.w3.org/2000/svg"
 width="1079.000000pt" height="994.000000pt" viewBox="0 0 1079.000000 994.000000"
 preserveAspectRatio="xMidYMid meet">

<g transform="translate(0.000000,994.000000) scale(0.100000,-0.100000)"
fill="#000000" stroke="none">
<path d="M5060 9689 c-552 -50 -1052 -234 -1471 -540 -121 -88 -122 -89 -223
-173 -215 -181 -409 -403 -571 -656 -196 -306 -337 -624 -406 -919 -29 -121
-36 -164 -64 -351 -91 -603 14 -1238 296 -1790 53 -104 234 -393 270 -430 7
-8 34 -42 59 -75 97 -131 295 -336 465 -482 316 -271 772 -502 1190 -603 272
-66 567 -95 879 -87 375 10 636 56 991 177 428 146 764 361 1126 720 282 280
490 570 636 885 128 277 185 470 254 860 16 89 22 492 10 630 -12 135 -22 194
-72 433 -94 444 -314 900 -628 1297 -240 303 -617 600 -1006 790 -331 162
-633 252 -1005 300 -150 20 -580 28 -730 14z m602 -119 c196 -19 533 -88 703
-145 467 -157 917 -448 1242 -803 195 -214 364 -466 492 -736 71 -148 102
-228 160 -413 252 -807 134 -1712 -313 -2391 -231 -351 -558 -685 -885 -904
-161 -107 -469 -261 -624 -312 -93 -30 -340 -95 -417 -110 -14 -2 -46 -9 -71
-15 -161 -37 -538 -58 -764 -42 -541 38 -1027 200 -1465 489 -570 375 -1015
986 -1200 1647 -73 261 -98 430 -107 711 -15 502 87 972 303 1402 334 663 852
1147 1521 1420 215 89 532 169 773 196 141 17 507 20 652 6z"/>
<path d="M5121 9469 c-46 -4 -86 -10 -89 -13 -5 -5 12 -169 25 -243 5 -33 6
-33 60 -33 l54 0 -6 58 c-3 31 -8 69 -11 83 -9 48 12 54 195 53 92 0 173 -4
180 -8 11 -7 12 -44 6 -197 l-7 -189 53 0 c63 0 212 -21 358 -49 58 -11 106
-20 107 -18 7 9 54 250 50 254 -8 8 -100 31 -107 27 -4 -2 -9 -23 -13 -46 -11
-73 -26 -108 -45 -108 -27 0 -306 31 -309 35 -1 1 4 65 13 141 8 77 18 164 21
195 l6 56 -84 6 c-107 9 -350 7 -457 -4z"/>
<path d="M5758 9318 c-9 -73 -14 -136 -11 -140 2 -5 29 -8 59 -8 53 0 54 1 54
29 0 15 3 49 6 75 6 40 10 46 30 46 19 0 117 -20 322 -67 42 -10 42 -11 -38
-268 -15 -49 -25 -94 -21 -98 4 -4 61 -28 125 -52 65 -25 172 -72 238 -105 67
-33 127 -60 134 -60 7 0 15 8 19 19 3 10 30 56 60 102 62 93 62 88 -17 134
l-47 27 -38 -77 c-31 -63 -41 -76 -58 -72 -33 8 -269 107 -279 117 -13 13 14
103 80 277 37 95 37 96 -63 131 -129 46 -455 122 -524 122 -12 0 -18 -26 -31
-132z"/>
<path d="M4795 9425 c-109 -20 -261 -61 -365 -99 -137 -49 -150 -55 -150 -63
1 -5 38 -100 83 -213 82 -204 82 -205 112 -204 26 1 284 71 294 80 3 2 -58
256 -63 262 -8 7 -109 -24 -113 -35 -3 -8 6 -46 21 -85 14 -39 23 -74 21 -78
-9 -14 -106 -43 -115 -34 -4 5 -15 32 -23 59 -8 28 -27 81 -41 119 -14 37 -26
72 -26 77 0 5 13 15 29 23 34 18 286 86 317 86 17 0 24 -11 37 -62 22 -82 54
-223 63 -272 l7 -39 56 7 c31 3 88 11 126 16 39 5 134 13 213 16 l143 7 -3
136 -3 136 -55 0 -55 0 -3 -92 c-2 -77 -6 -93 -20 -97 -9 -2 -85 -7 -169 -11
l-152 -7 -5 34 c-8 48 -23 160 -37 261 -13 99 -4 94 -124 72z"/>
<path d="M6471 9119 c-32 -98 -40 -133 -31 -139 19 -12 90 -34 93 -29 2 2 18
34 35 72 21 46 36 67 49 67 35 0 235 -107 319 -170 l21 -15 -21 -31 c-127
-188 -177 -267 -170 -274 5 -4 63 -48 130 -98 66 -50 153 -122 192 -161 40
-39 76 -71 80 -71 4 0 45 38 91 84 91 92 94 100 42 150 l-28 27 -54 -56 c-29
-31 -58 -54 -65 -53 -20 5 -244 200 -244 213 0 6 41 70 91 141 51 71 92 135
93 142 2 27 -259 192 -439 278 -148 70 -133 76 -184 -77z"/>
<path d="M4041 9164 c-151 -80 -214 -118 -321 -193 -51 -36 -99 -69 -104 -73
-10 -7 32 -74 110 -174 l40 -53 30 18 c16 10 35 25 43 34 14 17 12 21 -55 134
-10 17 -16 34 -14 36 3 3 70 44 150 92 107 64 148 85 160 78 8 -5 50 -76 92
-157 42 -82 79 -150 82 -153 2 -3 25 5 51 16 l46 20 -19 38 c-11 21 -47 106
-80 188 -77 193 -83 205 -96 205 -6 0 -58 -25 -115 -56z"/>
<path d="M3977 8892 c-26 -15 -47 -30 -47 -33 0 -3 18 -35 40 -72 22 -36 40
-70 40 -76 0 -5 -30 -31 -67 -57 -38 -27 -99 -72 -137 -101 -37 -29 -69 -53
-71 -53 -2 0 -49 70 -105 155 -56 85 -108 155 -114 155 -16 0 -289 -279 -365
-373 -35 -44 -61 -84 -58 -92 5 -12 182 -165 192 -165 2 0 16 16 31 36 l27 35
-57 58 -58 58 90 104 c49 57 105 119 125 137 l35 34 97 -119 c147 -178 122
-165 198 -102 116 96 140 114 257 193 63 43 117 80 118 82 2 1 -16 39 -41 83
-25 44 -48 89 -52 100 -12 38 -28 41 -78 13z"/>
<path d="M5165 8874 c-471 -46 -776 -147 -1115 -368 -502 -328 -876 -962 -950
-1611 -42 -373 32 -824 193 -1174 260 -569 671 -958 1254 -1190 404 -160 928
-195 1393 -92 181 40 285 77 475 171 260 127 448 263 640 461 327 338 534 741
620 1209 27 144 32 495 10 653 -59 420 -225 807 -491 1142 -135 170 -268 289
-472 421 -146 96 -253 153 -377 202 -354 139 -522 172 -895 177 -135 2 -263 1
-285 -1z m470 -115 c190 -18 411 -65 565 -121 132 -47 364 -162 470 -232 121
-82 268 -205 355 -298 281 -302 492 -765 550 -1206 29 -222 15 -515 -36 -717
-11 -44 -22 -87 -24 -95 -14 -65 -99 -286 -148 -385 -78 -159 -114 -218 -215
-354 -228 -306 -534 -547 -874 -690 l-48 -20 0 1107 c0 986 -2 1110 -16 1130
l-15 22 -804 0 -804 0 -15 -22 c-14 -20 -16 -143 -16 -1125 0 -876 -3 -1103
-12 -1103 -24 0 -208 88 -305 146 -199 117 -387 281 -539 469 -351 433 -541
1029 -494 1550 38 422 181 806 423 1135 291 395 680 646 1169 754 313 70 527
84 833 55z m-475 -2118 c7 -13 10 -372 10 -1081 l0 -1062 -67 7 c-38 4 -71 9
-75 12 -10 5 -11 2104 -2 2128 4 10 21 23 38 30 25 11 35 11 58 -1 15 -8 32
-23 38 -33z m290 11 c20 -24 20 -41 18 -1091 l-3 -1066 -75 0 -75 0 0 1066 c0
1053 0 1067 20 1089 40 44 82 45 115 2z m579 23 c16 -8 31 -21 34 -29 7 -17 8
-259 7 -1343 l0 -712 -71 -21 c-39 -12 -72 -20 -72 -18 -1 2 0 473 3 1046 l5
1044 28 24 c33 28 30 28 66 9z m-1175 -26 l26 -31 0 -1034 c0 -569 -4 -1034
-9 -1034 -4 0 -21 4 -37 10 -16 5 -48 14 -71 20 l-43 11 0 1024 0 1024 22 21
c33 31 81 26 112 -11z m897 12 l24 -19 3 -1060 c2 -1006 1 -1061 -15 -1066
-10 -2 -46 -8 -80 -11 l-63 -7 0 1065 c0 1062 0 1064 21 1091 25 32 75 35 110
7z"/>
<path d="M4127 8273 c-4 -3 -7 -57 -7 -120 l0 -113 1270 0 1270 0 0 120 0 120
-1263 0 c-695 0 -1267 -3 -1270 -7z"/>
<path d="M4149 7905 c-124 -30 -211 -86 -297 -189 -109 -129 -152 -295 -119
-452 21 -96 55 -161 128 -239 113 -120 275 -174 430 -142 162 33 263 107 330
243 38 75 42 92 43 156 0 97 -24 165 -80 227 -141 156 -405 141 -498 -28 -53
-98 -28 -230 55 -290 35 -26 51 -31 100 -31 47 0 63 5 88 26 17 14 31 34 31
45 0 16 -7 19 -47 19 -108 1 -147 103 -69 179 62 60 155 54 216 -15 99 -113
33 -299 -133 -374 -135 -62 -327 18 -403 167 -27 53 -29 67 -29 163 0 94 3
111 27 160 32 65 100 139 161 174 99 58 57 57 1338 54 l1174 -3 60 -24 c64
-26 151 -100 191 -162 38 -60 57 -143 52 -224 -9 -135 -80 -239 -205 -297 -58
-28 -71 -30 -141 -26 -158 10 -266 106 -279 249 -5 46 -1 66 17 103 33 68 70
91 152 91 73 0 105 -18 128 -75 26 -63 -29 -140 -101 -140 -21 0 -40 -4 -43
-9 -3 -5 13 -26 35 -46 39 -35 45 -37 95 -33 130 11 213 164 160 293 -21 49
-78 110 -129 136 -105 54 -264 27 -361 -62 -81 -74 -111 -141 -111 -249 0 -79
3 -90 38 -157 161 -301 577 -335 799 -66 110 133 143 309 88 469 -61 177 -181
301 -353 366 l-62 23 -1210 2 c-993 1 -1220 -1 -1266 -12z"/>
<path d="M4610 7654 c0 -4 25 -33 55 -66 31 -33 70 -88 88 -121 30 -58 32 -68
32 -167 0 -121 -14 -165 -77 -242 -21 -26 -38 -49 -38 -52 0 -3 324 -6 720 -6
406 0 720 4 720 9 0 5 -7 15 -16 22 -27 22 -59 80 -79 138 -13 40 -16 75 -13
145 5 116 34 183 118 270 33 34 60 66 60 69 0 4 -353 7 -785 7 -432 0 -785 -3
-785 -6z"/>
<path d="M7154 8788 c-21 -29 -53 -74 -71 -100 l-34 -47 42 -31 c23 -16 46
-30 50 -30 4 0 24 25 44 55 22 33 44 55 55 55 20 0 260 -237 260 -256 0 -7
-53 -62 -117 -124 -65 -62 -122 -119 -126 -126 -6 -10 7 -34 40 -77 56 -71
157 -219 198 -290 25 -43 31 -48 54 -42 29 7 187 100 196 116 8 12 -42 99 -57
99 -6 0 -36 -15 -67 -34 -31 -19 -61 -36 -67 -38 -10 -3 -158 196 -171 229 -4
11 48 64 212 215 49 45 49 47 35 74 -19 36 -288 309 -358 363 -30 22 -60 41
-67 41 -7 0 -30 -24 -51 -52z"/>
<path d="M3420 8419 l-44 -52 30 -27 c16 -15 42 -41 58 -58 l29 -31 -83 -113
c-46 -62 -85 -115 -86 -117 -5 -6 -57 32 -190 137 l-118 93 -18 -23 c-36 -47
-147 -236 -196 -333 -49 -100 -98 -223 -91 -229 10 -7 250 -88 253 -85 10 12
25 73 20 80 -3 5 -22 18 -43 29 -21 10 -52 31 -70 45 l-31 27 51 101 c70 139
121 227 132 227 4 0 76 -45 158 -101 141 -94 152 -99 165 -82 7 10 14 21 14
24 0 6 122 171 223 302 l37 48 -61 79 c-95 122 -88 119 -139 59z"/>
<path d="M7611 8221 l-94 -88 24 -32 c12 -17 27 -31 32 -31 5 0 31 15 57 34
78 56 87 54 142 -31 49 -75 128 -217 128 -230 0 -4 -17 -17 -38 -29 -41 -23
-275 -156 -280 -160 -2 -1 15 -45 37 -97 37 -86 110 -300 127 -369 3 -16 8
-28 11 -28 12 0 211 52 230 60 21 9 21 11 8 60 -8 29 -15 54 -17 55 -2 2 -35
-5 -73 -16 -103 -28 -100 -30 -131 64 -14 45 -40 111 -55 146 -16 35 -27 67
-24 71 2 4 42 24 87 43 156 67 248 116 248 132 0 55 -283 534 -315 534 -5 0
-52 -40 -104 -88z"/>
<path d="M3021 7878 c-17 -29 -31 -59 -31 -66 0 -7 14 -21 31 -30 17 -9 51
-29 75 -44 l43 -27 -38 -83 c-21 -46 -46 -107 -55 -135 -10 -31 -24 -53 -32
-53 -8 0 -83 25 -166 55 -84 30 -159 55 -167 57 -17 4 -42 -64 -81 -217 -29
-114 -74 -384 -66 -392 7 -7 246 -37 251 -31 2 2 5 24 7 48 3 44 3 44 -37 52
-100 22 -115 28 -115 51 0 46 72 310 90 330 4 4 68 -12 142 -37 182 -59 194
-61 203 -39 3 10 29 81 57 158 28 77 68 175 89 217 22 43 39 84 39 92 0 13
-158 128 -194 142 -10 4 -25 -12 -45 -48z"/>
<path d="M7965 7597 c-147 -70 -137 -60 -116 -107 10 -22 21 -43 25 -47 3 -3
40 4 81 17 69 22 77 22 92 8 24 -24 108 -348 90 -348 -15 0 -351 -70 -355 -74
-2 -3 1 -45 7 -93 7 -48 15 -163 18 -255 l6 -168 72 0 c40 0 100 -3 134 -6
l61 -7 0 56 0 56 -82 3 -83 3 -8 70 c-4 39 -12 110 -18 158 -6 49 -9 91 -6 93
3 3 72 12 153 19 216 21 214 21 214 53 0 71 -79 395 -126 519 -14 37 -27 75
-28 82 -2 8 -7 16 -12 17 -5 2 -58 -21 -119 -49z"/>
<path d="M2797 7253 c-10 -18 -29 -115 -23 -120 3 -3 38 -12 78 -20 39 -7 74
-15 76 -18 2 -2 -3 -44 -11 -92 -9 -48 -19 -116 -22 -151 -4 -34 -11 -65 -17
-68 -5 -3 -86 2 -179 12 -93 10 -171 15 -174 12 -32 -32 6 -653 40 -653 6 0
68 11 138 25 l128 25 -6 35 c-13 73 -8 70 -103 67 l-86 -2 -8 35 c-4 19 -11
99 -14 177 -6 118 -5 143 7 147 8 3 93 9 189 13 l175 8 6 130 c4 72 16 184 28
249 11 66 19 121 18 122 -3 3 -226 74 -231 74 -3 0 -7 -3 -9 -7z"/>
<path d="M8122 6870 c-124 -13 -123 -13 -115 -68 3 -26 7 -48 8 -50 4 -5 55
-10 116 -11 43 -1 58 -5 63 -17 8 -21 -5 -309 -14 -324 -5 -8 -50 -7 -170 3
-89 8 -173 12 -186 9 -19 -3 -24 -12 -30 -51 -13 -93 -55 -288 -80 -374 -14
-49 -23 -91 -19 -95 6 -7 181 -57 236 -68 25 -6 27 -3 41 55 9 34 13 63 9 65
-4 3 -44 10 -89 18 -76 11 -83 14 -78 33 5 17 49 225 62 293 5 26 13 26 244
-14 74 -13 135 -22 137 -20 23 23 38 471 20 579 -8 46 -9 47 -45 46 -20 -1
-70 -5 -110 -9z"/>
<path d="M2837 6557 l-118 -10 3 -61 3 -61 90 4 90 3 19 -133 c10 -74 19 -145
20 -159 1 -27 20 -20 -227 -78 -70 -16 -129 -31 -131 -33 -7 -7 34 -183 65
-279 46 -141 138 -340 158 -340 9 0 64 23 124 52 115 56 120 63 92 118 -18 35
-32 37 -117 10 -34 -11 -66 -20 -69 -20 -14 0 -121 282 -123 323 -1 24 4 31
24 38 14 4 89 26 168 50 78 23 145 46 148 51 3 5 -6 68 -20 141 -14 73 -32
190 -39 262 -9 102 -15 130 -27 131 -8 1 -68 -3 -133 -9z"/>
<path d="M7955 6124 c-3 -25 -5 -47 -3 -49 2 -2 36 -10 77 -18 40 -9 78 -20
84 -26 7 -7 1 -42 -17 -108 -44 -155 -70 -238 -79 -244 -5 -3 -83 18 -174 47
-91 30 -174 54 -183 54 -11 0 -33 -36 -70 -115 -29 -63 -86 -170 -126 -237
-84 -140 -85 -126 21 -180 32 -17 77 -42 98 -55 43 -27 42 -28 81 39 l27 48
-47 27 c-26 16 -58 37 -72 48 l-24 21 68 134 c66 129 70 135 99 134 17 -1 96
-27 176 -58 80 -31 152 -56 160 -56 33 0 120 251 174 503 17 78 20 109 12 112
-16 5 -211 25 -246 25 -26 0 -29 -4 -36 -46z"/>
<path d="M2978 5881 c-65 -21 -121 -40 -124 -44 -10 -10 37 -117 51 -117 7 0
43 11 80 25 38 15 72 22 76 18 20 -20 131 -285 123 -293 -12 -12 -218 -121
-281 -150 l-53 -23 42 -76 c55 -99 100 -170 166 -259 56 -77 140 -175 153
-180 10 -4 179 170 179 185 0 7 -11 24 -24 40 -22 26 -26 27 -43 12 -10 -8
-42 -30 -71 -48 -61 -39 -62 -39 -126 52 -108 154 -125 181 -120 189 3 4 72
56 155 114 82 58 149 109 149 114 0 4 -28 64 -63 132 -34 67 -80 170 -101 228
-22 58 -42 108 -45 112 -3 3 -59 -10 -123 -31z"/>
<path d="M7720 5473 c-11 -21 -22 -42 -23 -48 -1 -5 31 -28 72 -50 41 -23 76
-46 78 -51 4 -13 -160 -286 -180 -298 -10 -6 -62 19 -183 88 l-168 98 -31 -35
c-16 -19 -61 -72 -100 -117 -38 -46 -106 -116 -152 -157 l-81 -75 46 -61 c25
-34 49 -64 52 -67 3 -3 16 -22 30 -42 14 -21 28 -38 32 -38 9 0 98 81 98 90 0
7 -13 23 -66 82 -30 34 -30 51 -1 75 12 10 60 60 106 111 46 50 89 92 96 92 6
0 74 -50 149 -111 114 -91 140 -108 152 -98 23 19 129 153 167 211 71 109 136
216 166 276 l31 62 -22 10 c-86 37 -224 90 -234 90 -7 0 -22 -17 -34 -37z"/>
<path d="M3263 5259 l-112 -80 20 -34 c37 -63 42 -63 119 -6 l71 51 22 -23
c12 -13 55 -65 95 -116 l73 -93 -118 -125 c-65 -68 -122 -131 -128 -139 -17
-26 237 -262 424 -392 41 -29 78 -52 82 -52 4 0 24 30 45 68 20 37 50 86 66
109 15 23 28 46 28 52 0 11 -77 71 -92 71 -4 0 -8 -5 -8 -11 0 -18 -80 -129
-94 -129 -13 0 -39 19 -157 119 -105 88 -149 131 -149 144 0 6 47 66 105 132
57 66 110 130 116 142 11 20 5 29 -56 95 -37 40 -106 124 -152 186 -47 61 -86
112 -87 112 -1 0 -52 -36 -113 -81z"/>
<path d="M7317 4882 c-20 -21 -37 -42 -37 -46 0 -5 23 -33 50 -62 28 -29 50
-57 50 -62 0 -22 -267 -254 -286 -250 -7 2 -60 67 -118 146 -58 78 -109 142
-114 142 -5 0 -40 -22 -78 -48 -82 -58 -219 -139 -315 -187 -38 -20 -69 -41
-69 -47 0 -15 80 -230 89 -241 5 -5 125 35 138 47 1 1 -18 37 -42 80 -51 88
-54 102 -24 111 11 4 75 40 142 81 l121 74 21 -20 c12 -12 39 -49 59 -83 87
-144 134 -212 147 -215 35 -6 499 422 499 460 0 7 -15 23 -33 35 -17 12 -59
45 -92 73 -32 27 -62 50 -65 50 -3 0 -23 -17 -43 -38z"/>
<path d="M3686 4783 c-43 -52 -80 -101 -82 -107 -5 -12 86 -96 104 -96 5 0 14
11 20 24 6 13 27 47 47 75 l37 51 42 -31 c22 -17 89 -65 148 -106 l108 -74
-27 -47 c-15 -26 -30 -49 -33 -52 -12 -10 -130 -216 -130 -227 0 -28 555 -279
597 -271 11 2 26 39 49 123 44 160 45 157 -16 179 -28 10 -52 17 -54 15 -2 -2
-15 -41 -30 -86 -15 -46 -31 -85 -36 -88 -23 -14 -350 130 -350 154 0 4 36 80
80 169 l80 163 -31 17 c-66 36 -285 185 -353 240 -39 32 -76 61 -82 65 -6 3
-45 -37 -88 -90z"/>
<path d="M4285 4385 c-30 -64 -53 -121 -50 -125 5 -9 116 -53 119 -48 1 2 13
36 26 76 14 41 28 76 33 79 4 2 58 -11 120 -31 62 -19 135 -41 162 -48 60 -17
60 -4 -1 -218 -24 -86 -44 -162 -44 -171 0 -30 316 -83 573 -96 l127 -6 0 135
0 136 -71 7 c-38 4 -73 4 -76 1 -4 -3 -8 -42 -11 -86 -3 -44 -7 -82 -11 -84
-6 -3 -70 4 -291 34 -47 6 -89 15 -94 20 -6 6 5 69 27 157 20 81 38 161 39
177 l3 30 -155 47 c-126 38 -247 80 -357 126 -8 3 -32 -37 -68 -112z"/>
<path d="M6745 4444 c-22 -13 -44 -25 -48 -27 -5 -1 14 -39 42 -85 28 -45 51
-86 51 -90 0 -16 -357 -178 -368 -167 -6 6 -61 148 -102 264 -17 47 -31 86
-33 88 -2 1 -59 -15 -128 -36 -139 -43 -336 -90 -417 -98 -29 -3 -55 -10 -58
-15 -6 -10 25 -211 36 -228 5 -9 28 -10 82 -5 l75 7 -19 66 c-29 107 -29 107
55 122 39 7 119 26 176 42 117 34 111 36 136 -52 58 -204 89 -290 104 -290 70
0 490 196 599 278 l23 18 -49 75 c-27 41 -61 93 -76 117 -14 23 -30 42 -34 41
-4 0 -25 -12 -47 -25z"/>
<path d="M4980 4294 c0 -3 -11 -55 -25 -116 -14 -61 -25 -114 -25 -119 0 -4
26 -11 58 -14 31 -4 64 -9 73 -11 13 -4 18 11 27 77 7 45 13 84 15 85 3 3 327
-17 343 -21 7 -2 14 -55 18 -147 4 -79 9 -162 13 -185 l5 -43 50 0 c125 0 557
67 643 100 l24 9 -19 63 c-38 131 -61 197 -69 202 -5 3 -32 -1 -60 -10 -59
-17 -60 -22 -31 -116 11 -34 20 -64 20 -65 0 -3 -97 -32 -145 -42 -87 -19
-260 -40 -267 -33 -4 4 -12 39 -18 77 -5 39 -18 119 -28 179 l-18 108 -179 4
c-99 3 -218 9 -265 14 -97 11 -140 12 -140 4z"/>
<path d="M537 3089 c-61 -14 -114 -58 -144 -118 -64 -130 -14 -218 202 -354
108 -69 137 -126 100 -197 -23 -44 -67 -63 -136 -58 -69 5 -127 40 -164 98
-14 22 -30 40 -35 40 -6 0 -10 -39 -10 -96 l0 -95 48 -22 c39 -18 66 -22 162
-22 115 0 116 0 173 35 70 42 106 98 114 176 11 106 -43 184 -192 274 -135 82
-166 128 -134 199 13 30 28 46 55 57 33 14 39 14 79 -6 42 -21 95 -84 95 -115
0 -8 6 -15 14 -15 11 0 15 20 18 87 2 47 -1 92 -7 99 -13 16 -122 44 -166 43
-19 -1 -51 -5 -72 -10z"/>
<path d="M2663 3076 c-155 -59 -237 -183 -250 -381 -13 -198 75 -358 227 -416
62 -24 185 -25 258 -4 65 20 124 73 118 106 -3 13 -5 46 -5 73 l-1 50 -52 -57
c-57 -60 -107 -87 -161 -87 -127 0 -202 99 -214 281 -13 202 55 355 165 374
70 12 127 -26 172 -112 12 -24 26 -43 31 -43 5 0 9 43 9 96 l0 95 -47 21 c-73
32 -173 34 -250 4z"/>
<path d="M7359 3068 c-45 -23 -73 -46 -94 -76 -27 -39 -30 -51 -30 -121 0 -65
4 -83 23 -112 24 -33 100 -90 196 -145 55 -31 106 -95 106 -133 -1 -68 -63
-121 -144 -121 -68 0 -113 25 -156 88 -19 28 -38 51 -42 52 -5 0 -8 -42 -8
-93 l0 -93 47 -23 c54 -26 158 -40 220 -29 97 16 181 84 203 162 7 25 11 75 8
110 -6 91 -37 132 -155 205 -112 68 -159 111 -168 149 -16 76 60 146 135 123
44 -13 84 -51 111 -104 11 -21 24 -35 28 -33 5 3 9 48 10 99 l2 94 -69 16
c-104 25 -149 22 -223 -15z"/>
<path d="M941 2980 c-1 -61 2 -110 7 -110 5 0 25 25 43 55 26 43 42 58 75 71
23 9 52 14 65 12 l24 -3 2 -310 c2 -194 -1 -322 -8 -342 -6 -18 -23 -43 -39
-57 -16 -13 -26 -27 -23 -30 4 -3 69 -6 146 -6 l139 0 -31 35 c-17 20 -33 45
-36 58 -3 12 -4 164 -3 337 l3 315 31 3 c56 5 106 -26 134 -85 14 -29 30 -52
35 -53 6 0 10 43 10 110 l0 110 -286 0 -287 0 -1 -110z"/>
<path d="M1632 3053 l37 -38 6 -260 c7 -312 11 -333 94 -416 69 -68 116 -84
230 -77 91 5 149 33 200 95 64 78 73 121 79 400 4 222 7 256 23 283 10 16 26
30 34 30 8 0 15 5 15 10 0 6 -52 10 -136 10 l-137 0 42 -45 41 -45 0 -218 c0
-305 -13 -358 -100 -402 -67 -34 -130 -23 -186 32 -50 47 -55 85 -52 362 l3
248 39 34 39 34 -153 0 -154 0 36 -37z"/>
<path d="M3080 3085 c0 -3 15 -18 33 -34 l32 -29 0 -347 0 -347 -33 -27 c-17
-15 -29 -31 -25 -34 9 -10 263 -9 263 1 0 5 -11 18 -23 29 -21 17 -25 33 -30
113 -8 114 0 189 23 221 10 13 21 22 23 19 2 -3 59 -92 127 -197 l122 -193
109 0 c60 0 109 2 109 5 0 3 -15 19 -33 35 -19 16 -67 80 -107 142 -40 62
-106 164 -147 226 l-74 113 57 72 c78 97 164 180 202 196 18 8 32 20 32 27 0
11 -26 14 -127 14 -119 0 -125 -1 -110 -17 31 -35 31 -69 1 -120 -15 -27 -30
-50 -33 -53 -3 -3 -20 -23 -36 -45 -16 -22 -53 -65 -82 -95 l-53 -55 0 152 0
153 36 40 36 40 -146 0 c-80 0 -146 -2 -146 -5z"/>
<path d="M3765 3081 c-3 -5 8 -18 25 -27 47 -28 61 -64 177 -454 41 -140 81
-273 88 -295 l12 -40 67 -3 c48 -2 67 1 70 10 2 7 16 56 31 108 54 187 95 342
95 356 0 8 4 14 8 14 7 0 55 -171 120 -427 l16 -63 51 0 51 0 26 93 c118 404
177 597 191 624 10 18 40 51 68 73 l51 40 -151 0 c-83 0 -151 -2 -151 -4 0 -2
16 -20 35 -39 30 -30 35 -41 35 -83 0 -27 -19 -119 -41 -204 -23 -85 -47 -182
-55 -215 -19 -76 -23 -89 -30 -83 -3 3 -33 119 -68 258 l-63 252 19 40 c10 21
33 48 51 58 l32 20 -162 0 c-132 0 -163 -3 -163 -14 0 -7 11 -21 25 -30 14 -9
34 -35 46 -58 l22 -42 -23 -96 c-12 -52 -28 -113 -35 -135 -7 -22 -25 -93 -40
-157 -16 -65 -31 -118 -34 -118 -9 0 -132 499 -131 534 0 21 12 40 40 67 22
21 40 41 40 44 0 9 -339 5 -345 -4z"/>
<path d="M4930 3084 c0 -3 16 -20 35 -38 l35 -33 0 -335 0 -334 -35 -34 c-19
-19 -35 -38 -35 -42 0 -5 122 -7 272 -6 l272 3 8 35 c13 62 21 200 12 200 -5
-1 -26 -23 -47 -51 -56 -71 -79 -80 -195 -77 l-97 3 0 145 0 145 63 3 c45 2
71 -2 88 -13 13 -8 23 -19 21 -23 -1 -4 3 -9 8 -12 6 -3 11 27 13 78 2 45 -1
82 -5 82 -5 0 -18 -7 -31 -15 -16 -12 -41 -15 -89 -13 l-68 3 0 125 0 125 102
0 c114 0 137 -10 182 -78 41 -62 54 -50 46 41 -3 42 -8 87 -11 100 l-4 22
-270 0 c-149 0 -270 -3 -270 -6z"/>
<path d="M5606 3081 c-4 -6 -3 -11 3 -11 5 0 23 -14 40 -31 l31 -31 0 -340 0
-340 -37 -34 -37 -34 147 0 c81 0 147 3 147 6 0 4 -13 22 -30 41 l-30 34 0
134 c0 73 3 136 8 138 4 3 22 2 40 0 25 -4 40 -16 63 -49 16 -24 26 -44 22
-44 -4 0 -3 -4 2 -8 6 -4 34 -54 64 -112 75 -147 66 -140 183 -140 102 0 117
7 74 36 -30 19 -58 63 -158 246 l-75 137 26 17 c78 49 121 117 121 189 0 79
-47 147 -125 182 -33 15 -76 18 -256 21 -149 3 -219 0 -223 -7z m369 -85 c108
-45 98 -236 -15 -293 -24 -13 -61 -23 -82 -23 l-38 0 0 165 0 165 50 0 c28 0
66 -6 85 -14z"/>
<path d="M6376 3072 c54 -45 54 -47 54 -394 0 -301 -1 -325 -19 -355 -11 -17
-29 -34 -40 -38 -12 -3 -19 -11 -16 -16 8 -12 285 -12 285 0 0 5 -12 18 -27
29 l-28 20 -3 150 c-3 145 -3 151 19 171 13 12 25 21 28 21 7 0 93 -121 196
-278 l80 -121 127 -1 c70 0 129 4 133 10 3 5 -7 16 -22 24 -41 21 -70 56 -179
216 -54 80 -121 177 -148 217 l-49 72 89 96 c85 93 147 144 209 175 28 14 20
15 -124 18 -85 1 -156 1 -158 -2 -3 -2 5 -14 16 -25 29 -29 26 -61 -10 -123
-46 -79 -177 -227 -201 -228 -5 0 -8 61 -8 135 0 145 11 193 49 217 12 7 21
16 21 20 0 5 -66 8 -147 8 -142 0 -147 -1 -127 -18z"/>
<path d="M7800 2980 c0 -65 4 -110 10 -110 5 0 19 17 30 38 11 20 25 44 32 53
21 25 77 50 106 47 l27 -3 3 -323 c2 -345 0 -364 -48 -395 -11 -6 -20 -15 -20
-19 0 -11 278 -10 284 1 3 5 -5 16 -19 25 -41 27 -45 72 -43 402 3 291 4 309
21 312 60 12 150 -44 177 -108 7 -17 16 -30 21 -30 5 0 9 50 9 110 l0 110
-295 0 -295 0 0 -110z"/>
<path d="M8580 3080 c0 -5 9 -14 21 -20 26 -14 59 -68 59 -97 0 -12 -6 -42
-14 -65 -8 -24 -42 -137 -76 -253 -75 -252 -96 -303 -144 -341 -20 -16 -36
-32 -36 -36 0 -10 244 -11 253 -1 4 3 -5 16 -18 29 -27 25 -30 49 -16 104 6
19 15 54 21 78 l11 42 119 0 119 0 11 -42 c6 -24 15 -56 20 -72 18 -52 12 -93
-15 -114 -14 -11 -25 -23 -25 -26 0 -3 68 -6 150 -6 106 0 150 3 150 11 0 7
-16 26 -35 43 -31 28 -43 56 -109 256 -81 245 -157 488 -159 508 -1 15 -287
18 -287 2z m220 -316 c22 -76 40 -142 40 -146 0 -5 -38 -8 -85 -8 -47 0 -85 3
-85 7 0 8 31 122 61 226 11 38 22 67 25 64 3 -2 23 -67 44 -143z"/>
<path d="M9190 2978 l0 -113 19 40 c23 51 71 92 116 101 68 12 65 29 65 -331
0 -340 -4 -373 -45 -388 -8 -4 -15 -11 -15 -17 0 -6 47 -10 130 -10 75 0 130
4 130 9 0 6 -10 17 -22 26 l-23 15 0 348 0 347 30 3 c51 6 105 -19 136 -62 16
-21 29 -47 29 -58 0 -10 5 -18 10 -18 6 0 10 43 10 110 l0 110 -285 0 -285 0
0 -112z"/>
<path d="M9890 2980 c0 -60 3 -110 8 -110 4 0 18 20 31 45 32 61 73 89 130 89
l46 1 3 -333 2 -334 -35 -35 c-19 -19 -35 -37 -35 -39 0 -2 63 -4 140 -4 77 0
140 3 140 7 0 4 -12 20 -27 36 l-28 28 -3 340 -3 339 31 0 c57 0 109 -40 146
-110 l18 -35 5 35 c4 19 5 70 3 113 l-4 77 -284 0 -284 0 0 -110z"/>
<path d="M2147 1816 c-285 -85 -467 -400 -443 -768 22 -347 282 -618 592 -618
108 0 171 14 269 59 151 70 274 201 335 353 43 110 54 168 54 298 0 132 -13
202 -58 310 -84 199 -225 324 -422 374 -92 24 -232 20 -327 -8z m311 -130
c151 -76 202 -211 202 -536 0 -275 -34 -395 -141 -495 -87 -82 -230 -98 -339
-39 -59 32 -91 66 -126 135 -103 204 -90 649 25 830 80 127 246 172 379 105z"/>
<path d="M9520 1812 c-139 -51 -227 -118 -304 -235 -83 -127 -119 -261 -119
-447 1 -287 100 -488 308 -621 93 -59 149 -73 290 -73 121 0 135 2 206 30 207
83 347 245 405 469 28 108 26 325 -4 430 -49 171 -166 332 -289 398 -108 57
-186 77 -307 76 -95 0 -122 -4 -186 -27z m275 -103 c91 -25 163 -106 206 -232
57 -169 64 -450 13 -623 -25 -87 -52 -142 -92 -186 -51 -56 -104 -80 -188 -86
-62 -4 -79 -1 -133 23 -70 32 -113 76 -147 150 -43 95 -56 162 -61 340 -6 185
8 303 47 408 63 167 203 248 355 206z"/>
<path d="M1300 1812 c0 -5 11 -17 24 -25 13 -9 34 -32 46 -52 19 -30 22 -46
17 -88 -4 -42 -249 -808 -289 -907 l-10 -25 -14 30 c-7 17 -32 95 -55 175 -23
80 -57 192 -76 250 -66 205 -125 416 -130 471 -7 68 11 107 61 134 20 11 36
23 36 27 0 5 -115 8 -255 8 -140 0 -255 -3 -255 -7 0 -5 16 -19 35 -33 73 -53
84 -80 325 -830 61 -190 121 -374 133 -410 l22 -65 102 -3 102 -3 16 38 c9 21
27 70 40 108 13 39 54 156 90 260 111 316 144 412 205 593 69 202 91 243 162
306 l53 46 -177 0 c-97 0 -183 3 -192 6 -9 3 -16 2 -16 -4z"/>
<path d="M3164 1811 c-3 -3 18 -28 45 -55 31 -32 53 -66 60 -91 7 -26 10 -207
8 -530 -2 -557 3 -520 -90 -606 -28 -27 -47 -51 -43 -58 5 -8 83 -11 257 -11
285 0 285 0 200 76 -26 24 -54 56 -60 71 -8 21 -11 177 -9 570 l3 541 23 25
c13 14 37 31 53 37 16 7 29 16 29 21 0 8 -468 18 -476 10z"/>
<path d="M3847 1796 c-3 -8 -7 -79 -8 -158 -2 -135 -1 -143 17 -143 13 0 29
19 51 60 47 90 98 131 181 145 37 7 87 10 112 8 l45 -3 3 -515 c3 -583 5 -565
-75 -647 -75 -78 -75 -78 215 -81 202 -2 252 0 252 11 0 7 -26 40 -58 73 -38
39 -61 72 -65 93 -4 19 -7 267 -7 552 l0 519 78 0 c149 0 212 -34 274 -148 27
-48 44 -70 50 -64 11 11 11 249 1 290 l-5 22 -528 0 c-444 0 -529 -2 -533 -14z"/>
<path d="M5157 1772 c75 -65 73 -50 73 -614 0 -572 3 -546 -84 -626 -29 -26
-45 -49 -42 -58 5 -12 81 -14 485 -14 l481 0 4 23 c9 41 36 276 36 312 0 56
-29 45 -91 -32 -108 -134 -180 -163 -401 -163 l-138 0 0 245 0 245 149 0 c164
0 167 -1 234 -77 16 -18 33 -33 38 -33 5 0 9 78 9 175 0 142 -3 175 -14 175
-7 0 -19 -7 -27 -16 -7 -9 -33 -29 -57 -46 -43 -29 -47 -30 -175 -32 -73 -1
-138 0 -144 2 -10 3 -13 59 -13 232 0 208 2 228 18 235 9 3 89 3 177 -1 123
-5 168 -11 195 -24 42 -21 83 -61 118 -112 51 -77 60 -47 46 150 l-7 92 -456
0 -456 0 42 -38z"/>
<path d="M6330 1806 c0 -2 17 -15 39 -29 23 -15 47 -44 60 -69 21 -43 21 -55
21 -549 0 -332 -4 -518 -11 -544 -7 -27 -28 -56 -61 -87 -27 -26 -47 -52 -43
-58 9 -15 395 -14 395 1 0 6 -24 35 -54 64 -37 35 -58 64 -65 92 -8 27 -10
177 -9 448 l3 408 105 -144 c57 -79 161 -220 230 -314 69 -93 132 -180 140
-191 8 -12 73 -101 145 -198 l129 -176 53 0 53 0 0 588 c0 384 4 600 11 625
11 39 70 107 94 107 7 0 18 7 25 15 11 13 -9 15 -169 15 -99 0 -181 -4 -181
-9 0 -5 11 -16 24 -24 13 -9 34 -33 47 -54 l24 -38 0 -378 c0 -209 -3 -381 -6
-383 -4 -2 -24 24 -45 59 -21 34 -68 103 -104 152 -143 193 -212 287 -350 478
l-143 197 -178 0 c-99 0 -179 -2 -179 -4z"/>
<path d="M7850 1768 c72 -71 70 -50 70 -607 0 -573 3 -547 -87 -630 -30 -28
-52 -55 -48 -61 9 -15 511 -14 521 1 4 7 -16 32 -48 60 -81 71 -88 94 -88 307
l0 178 31 30 30 29 22 -29 c12 -16 50 -68 85 -115 34 -47 94 -129 132 -181 38
-52 100 -138 138 -190 l69 -95 178 -3 c99 -1 183 2 188 7 5 5 -6 22 -28 42
-40 36 -202 249 -468 618 l-97 133 27 33 c16 18 70 80 122 137 52 56 126 139
165 182 93 105 145 153 179 167 15 6 27 15 27 20 0 5 -98 9 -217 9 -207 -1
-217 -2 -198 -18 54 -46 67 -94 41 -155 -7 -18 -47 -71 -87 -118 -41 -47 -120
-140 -176 -205 -140 -163 -149 -174 -157 -174 -4 0 -6 120 -4 268 3 229 5 271
20 298 16 30 52 64 94 91 15 9 -33 12 -229 12 l-249 1 42 -42z"/>
</g>
</svg>
